<svg xmlns="http://www.w3.org/2000/svg" id="otobo-logo-simple" width="259.38" height="39.611" viewBox="0 0 259.38 39.611">
    <defs>
        <style>
            .cls-1{isolation:isolate}.cls-2{fill:#00023c}
        </style>
    </defs>
    <g id="Gruppe_25877" class="cls-1" data-name="Gruppe 25877">
        <path id="Pfad_13673" d="M436 188.679a2.046 2.046 0 0 0-3.686-.841 16.359 16.359 0 0 1-26.683.012 2.047 2.047 0 0 0-3.334 2.375 20.507 20.507 0 0 0 16.619 8.605h.062a20.51 20.51 0 0 0 16.677-8.625 2.048 2.048 0 0 0 .345-1.526z" class="cls-2" data-name="Pfad 13673" transform="translate(-291.377 -159.219)"/>
        <path id="Pfad_13674" d="M495.69 182.254a9.588 9.588 0 0 0-2.288-3.269 9.323 9.323 0 0 0-2.553-1.663c.036-.026.071-.053.105-.08a9.235 9.235 0 0 0 2.82-3.686 11.417 11.417 0 0 0 .936-4.518 9.492 9.492 0 0 0-2.8-7.155 10.2 10.2 0 0 0-7.33-2.661h-13.948a2.064 2.064 0 0 0-2.038 2.038v12.575a2 2 0 0 0 .56 1.4 2.035 2.035 0 0 0 1.527.636 2.088 2.088 0 0 0 1.472-.6 1.971 1.971 0 0 0 .617-1.431v-3.287h.006V163.3h11.551a6.379 6.379 0 0 1 4.638 1.552 5.514 5.514 0 0 1 1.57 4.14 6.818 6.818 0 0 1-1.761 5.135 6.342 6.342 0 0 1-4.447 1.748h-.227l-4.881-.032a2.028 2.028 0 0 0-2.035 2.06 2.048 2.048 0 0 0 .6 1.454 1.984 1.984 0 0 0 1.431.61l4.881.031h.586a10.632 10.632 0 0 1 4.03.734 5.641 5.641 0 0 1 2.656 2.142 6.855 6.855 0 0 1 .974 3.851c0 2.383-.682 4.047-2.085 5.087a9.176 9.176 0 0 1-5.575 1.644h-11.91v-10.544h-.006v-.863a2 2 0 0 0-.56-1.4 2.035 2.035 0 0 0-1.527-.636 2.088 2.088 0 0 0-1.472.6 1.971 1.971 0 0 0-.617 1.431v13.436a2.063 2.063 0 0 0 2.038 2.039h14.314a14.751 14.751 0 0 0 4.393-.643 10.64 10.64 0 0 0 3.716-2 9.488 9.488 0 0 0 2.552-3.413 11.522 11.522 0 0 0 .918-4.745 11.231 11.231 0 0 0-.831-4.464z" class="cls-2" data-name="Pfad 13674" transform="translate(-291.377 -159.219)"/>
        <g id="Gruppe_25359" data-name="Gruppe 25359" transform="translate(53.051)">
            <path id="Pfad_13675" d="M359.081 175.87a2.006 2.006 0 0 1-1.524-.652 2.075 2.075 0 0 1-.559-1.433v-10.5h-10.485a2.093 2.093 0 0 1-1.43-.558 1.97 1.97 0 0 1-.654-1.477 1.941 1.941 0 0 1 .656-1.475 2.067 2.067 0 0 1 1.428-.557h25.14a2.086 2.086 0 0 1 1.431.56 1.941 1.941 0 0 1 .652 1.472 1.919 1.919 0 0 1-.688 1.532 2.155 2.155 0 0 1-1.395.5h-10.486v10.5a2.109 2.109 0 0 1-2.086 2.085z" class="cls-2" data-name="Pfad 13675" transform="translate(-344.429 -159.219)"/>
        </g>
        <g id="Gruppe_25360" data-name="Gruppe 25360" transform="translate(65.621 20.795)">
            <path id="Pfad_13676" d="M359.082 197.526a2.01 2.01 0 0 1-1.526-.652 2.073 2.073 0 0 1-.557-1.433V182.1a2.109 2.109 0 0 1 2.086-2.085 2 2 0 0 1 1.524.652 2.075 2.075 0 0 1 .559 1.433v13.342a2.109 2.109 0 0 1-2.085 2.085z" class="cls-2" data-name="Pfad 13676" transform="translate(-356.998 -180.014)"/>
        </g>
        <path id="Pfad_13677" d="M313.083 159.8a2 2 0 0 0-1.444-.579 20.459 20.459 0 0 0-19.051 27.379 2.046 2.046 0 1 0 3.85-1.388 16.365 16.365 0 0 1 15.237-21.9 2.047 2.047 0 0 0 1.408-3.515zm-.7.716z" class="cls-2" data-name="Pfad 13677" transform="translate(-291.378 -159.219)"/>
        <path id="Pfad_13678" d="M528.431 161.252a2.049 2.049 0 0 0 2.028 2.062 16.365 16.365 0 0 1 15.237 21.9 2.047 2.047 0 0 0 2.1 2.734 2.051 2.051 0 0 0 1.748-1.346 20.459 20.459 0 0 0-19.051-27.384 2 2 0 0 0-1.444.579 2.032 2.032 0 0 0-.618 1.455zm1.318-.737z" class="cls-2" data-name="Pfad 13678" transform="translate(-291.376 -159.219)"/>
    </g>
</svg>
