<svg xmlns="http://www.w3.org/2000/svg" id="otobo-signet" width="74.975" height="68.916" viewBox="0 0 74.975 68.916">
    <defs>
        <style>
            .cls-1{isolation:isolate}.cls-2{fill:#001bff}.cls-3{fill:#00023c}
        </style>
    </defs>
    <g id="Gruppe_25879" class="cls-1" data-name="Gruppe 25879">
        <g id="Gruppe_25376" data-name="Gruppe 25376" transform="translate(18.194 4.832)">
            <path id="Pfad_13692" d="M460.689 468.429l.457-.457 2.108-2.108a3.448 3.448 0 0 0 1.025-2.337 3.328 3.328 0 0 0-1.023-2.552 3.5 3.5 0 0 0-4.893 0l-2.108 2.108-.589.591-2.109 2.108-.005.007-30.64 30.64a3.444 3.444 0 0 0-1.025 2.337 3.331 3.331 0 0 0 1.023 2.553 3.5 3.5 0 0 0 4.893 0l32.887-32.889z" class="cls-2" data-name="Pfad 13692" transform="translate(-407.502 -459.977)"/>
            <path id="Pfad_13693" d="M422.058 475.689l-.457-.457-2.108-2.108a3.457 3.457 0 0 0-2.337-1.027 3.328 3.328 0 0 0-2.552 1.023 3.5 3.5 0 0 0 0 4.893l2.108 2.108.591.591 2.108 2.108.007.005.023.024a3.451 3.451 0 0 0 2.339 1.025 3.327 3.327 0 0 0 2.551-1.023 3.5 3.5 0 0 0 0-4.893l-2.273-2.271z" class="cls-2" data-name="Pfad 13693" transform="translate(-413.606 -451.04)"/>
        </g>
        <g id="Gruppe_25377" data-name="Gruppe 25377">
            <path id="Pfad_13694" d="M437.593 526.112A34.458 34.458 0 1 1 452 460.348a3.144 3.144 0 1 1-2.632 5.71 28.174 28.174 0 1 0 16.267 28.253 3.143 3.143 0 0 1 6.259.584 34.285 34.285 0 0 1-34.301 31.217z" class="cls-3" data-name="Pfad 13694" transform="translate(-403.135 -457.196)"/>
        </g>
    </g>
</svg>
