<?xml version="1.0" encoding="UTF-8" standalone="no"?>
<svg
   xmlns:dc="http://purl.org/dc/elements/1.1/"
   xmlns:cc="http://creativecommons.org/ns#"
   xmlns:rdf="http://www.w3.org/1999/02/22-rdf-syntax-ns#"
   xmlns:svg="http://www.w3.org/2000/svg"
   xmlns="http://www.w3.org/2000/svg"
   xmlns:sodipodi="http://sodipodi.sourceforge.net/DTD/sodipodi-0.dtd"
   xmlns:inkscape="http://www.inkscape.org/namespaces/inkscape"
   inkscape:export-ydpi="400"
   inkscape:export-xdpi="400"
   inkscape:export-filename="/Users/sven/otobo/dev/otobo/otobo-github/var/httpd/htdocs/common/img/otobo-signet_border.png"
   inkscape:version="1.0beta1 (32d4812, 2019-09-19)"
   sodipodi:docname="otobo-signet_border.svg"
   id="svg906"
   version="1.1"
   viewBox="0 0 1318.436 1170.149"
   height="1170.149"
   width="1318.436">
  <metadata
     id="metadata910">
    <rdf:RDF>
      <cc:Work
         rdf:about="">
        <dc:format>image/svg+xml</dc:format>
        <dc:type
           rdf:resource="http://purl.org/dc/dcmitype/StillImage" />
        <dc:title></dc:title>
      </cc:Work>
    </rdf:RDF>
  </metadata>
  <sodipodi:namedview
     inkscape:current-layer="svg906"
     inkscape:window-maximized="0"
     inkscape:window-y="23"
     inkscape:window-x="0"
     inkscape:cy="790.83809"
     inkscape:cx="902.85714"
     inkscape:zoom="0.35"
     showgrid="false"
     id="namedview908"
     inkscape:window-height="907"
     inkscape:window-width="1600"
     inkscape:pageshadow="2"
     inkscape:pageopacity="0"
     guidetolerance="10"
     gridtolerance="10"
     objecttolerance="10"
     borderopacity="1"
     inkscape:document-rotation="0"
     bordercolor="#666666"
     pagecolor="#ffffff" />
  <defs
     id="defs898">
    <style
       id="style896">
            .cls-1{opacity:.099}.cls-2{fill:none;stroke:#fff;stroke-width:4px}
        </style>
  </defs>
  <g
     style="opacity:1;fill:none;fill-opacity:1;stroke:#ffffff;stroke-width:3.84440884;stroke-miterlimit:4;stroke-dasharray:none;stroke-opacity:1"
     transform="matrix(0.98312321,0,0,0.98312321,12.789335,12.790467)"
     data-name="Gruppe 23665"
     class="cls-1"
     id="Gruppe_23665">
    <g
       style="fill:none;fill-opacity:1;stroke:#ffffff;stroke-width:3.84440884;stroke-miterlimit:4;stroke-dasharray:none;stroke-opacity:1"
       transform="translate(360.643,52.93)"
       data-name="Gruppe 942"
       id="Gruppe_942">
      <path
         inkscape:connector-curvature="0"
         style="fill:none;fill-opacity:1;stroke:#ffffff;stroke-width:3.84440884;stroke-miterlimit:4;stroke-dasharray:none;stroke-opacity:1"
         transform="translate(-420.726,-180.83)"
         data-name="Pfad 13201"
         class="cls-2"
         d="m 1314.138,322.794 7.679,-7.679 35.4,-35.4 a 58.114,58.114 0 0 0 17.241,-39.281 c 0.715,-16.072 -5.224,-30.888 -17.184,-42.849 -10.876,-10.877 -25.038,-16.672 -41.167,-16.757 -15.928,0.029 -30.116,5.824 -41.021,16.729 l -35.426,35.427 -9.906,9.906 -35.428,35.4 -0.086,0.114 -514.675,514.7 a 57.843,57.843 0 0 0 -17.244,39.252 c -0.715,16.072 5.224,30.916 17.187,42.878 10.847,10.848 25.006,16.643 41.164,16.757 15.93,-0.057 30.119,-5.852 41.022,-16.757 L 1314.139,322.79 Z"
         id="Pfad_13201" />
      <path
         inkscape:connector-curvature="0"
         style="fill:none;fill-opacity:1;stroke:#ffffff;stroke-width:3.84440884;stroke-miterlimit:4;stroke-dasharray:none;stroke-opacity:1"
         transform="translate(-653.802,160.446)"
         data-name="Pfad 13202"
         class="cls-2"
         d="m 795.767,253.572 -7.679,-7.65 -35.4,-35.427 a 57.95,57.95 0 0 0 -39.282,-17.214 c -16.072,-0.742 -30.887,5.2 -42.85,17.185 -10.876,10.848 -16.671,25.008 -16.756,41.137 0.028,15.929 5.823,30.146 16.73,41.051 l 35.427,35.4 9.906,9.906 35.4,35.427 0.114,0.086 0.4,0.4 a 58.1,58.1 0 0 0 39.28,17.242 c 16.074,0.714 30.89,-5.224 42.851,-17.185 10.875,-10.876 16.67,-25.036 16.756,-41.165 -0.028,-15.929 -5.824,-30.117 -16.728,-41.022 l -38.167,-38.167 z"
         id="Pfad_13202" />
    </g>
    <g
       style="fill:none;fill-opacity:1;stroke:#ffffff;stroke-width:3.84440884;stroke-miterlimit:4;stroke-dasharray:none;stroke-opacity:1"
       data-name="Gruppe 943"
       id="Gruppe_943">
      <path
         inkscape:connector-curvature="0"
         style="fill:none;fill-opacity:1;stroke:#ffffff;stroke-width:3.84440884;stroke-miterlimit:4;stroke-dasharray:none;stroke-opacity:1"
         transform="translate(-641.168,-178.976)"
         data-name="Pfad 13203"
         class="cls-2"
         d="m 1224.214,1345.124 c -321.5,0 -583.046,-261.548 -583.046,-583.074 0,-321.5 261.547,-583.075 583.046,-583.075 a 582.1,582.1 0 0 1 304.624,85.813 57.082,57.082 0 1 1 -59.689,97.317 468.094,468.094 0 0 0 -244.935,-68.941 c -258.522,0 -468.857,210.335 -468.857,468.886 0,258.551 210.334,468.886 468.857,468.886 246.82,0 452.357,-192.722 467.944,-438.769 a 57.094337,57.094337 0 0 1 113.96,7.223 c -19.385,306.025 -274.995,545.734 -581.904,545.734 z"
         id="Pfad_13203" />
    </g>
  </g>
</svg>
