<svg xmlns="http://www.w3.org/2000/svg" width="22" height="22" viewBox="0 0 22 22">
    <defs>
        <style>
            .cls-1{fill:none}
        </style>
    </defs>
    <g id="dashboard-24px">
        <path id="Pfad_13855" d="M0 0h22v22H0z" class="cls-1" data-name="Pfad 13855"></path>
        <path id="Pfad_13856" d="M3.917 12.167h5.5a.919.919 0 0 0 .917-.917V3.917A.919.919 0 0 0 9.417 3h-5.5A.919.919 0 0 0 3 3.917v7.333a.919.919 0 0 0 .917.917zm0 7.333h5.5a.919.919 0 0 0 .917-.917v-3.666A.919.919 0 0 0 9.417 14h-5.5a.919.919 0 0 0-.917.917v3.667a.919.919 0 0 0 .917.916zm9.167 0h5.5a.919.919 0 0 0 .917-.917V11.25a.919.919 0 0 0-.917-.917h-5.5a.919.919 0 0 0-.917.917v7.333a.919.919 0 0 0 .916.917zm-.917-15.583v3.666a.919.919 0 0 0 .917.917h5.5a.919.919 0 0 0 .917-.917V3.917A.919.919 0 0 0 18.583 3h-5.5a.919.919 0 0 0-.916.917z" data-name="Pfad 13856" transform="translate(-.25 -.25)"></path>
    </g>
</svg>
