<svg xmlns="http://www.w3.org/2000/svg" id="question_answer-24px" width="22" height="22" viewBox="0 0 22 22">
    <defs>
        <style>
            .cls-1{fill:none}.cls-2{fill:#66678a}
        </style>
    </defs>
    <path id="Pfad_13752" d="M0 0h22v22H0z" class="cls-1" data-name="Pfad 13752"/>
    <path id="Pfad_13753" d="M18.625 5.694H17.7v7.389a.926.926 0 0 1-.924.924H5.694v.924a1.853 1.853 0 0 0 1.847 1.847h9.236l3.694 3.694V7.542a1.853 1.853 0 0 0-1.846-1.848zm-2.771 4.618V3.847A1.853 1.853 0 0 0 14.007 2H3.847A1.853 1.853 0 0 0 2 3.847v12.007l3.694-3.694h8.312a1.853 1.853 0 0 0 1.848-1.848z" class="cls-2" data-name="Pfad 13753" transform="translate(-.236 -.236)"/>
</svg>
