<svg xmlns="http://www.w3.org/2000/svg" id="storage-24px" width="22" height="22" viewBox="0 0 22 22">
    <defs>
        <style>
            .cls-1{fill:none}
        </style>
    </defs>
    <path id="Pfad_13838" d="M0 0h22v22H0z" class="cls-1" data-name="Pfad 13838"></path>
    <path id="Pfad_13839" d="M4.024 20.192h16.192a2.024 2.024 0 0 0 0-4.048H4.024a2.024 2.024 0 1 0 0 4.048zm0-3.036h2.024v2.024H4.024zM2 6.024a2.03 2.03 0 0 0 2.024 2.024h16.192a2.024 2.024 0 0 0 0-4.048H4.024A2.03 2.03 0 0 0 2 6.024zm4.048 1.012H4.024V5.012h2.024zM4.024 14.12h16.192a2.024 2.024 0 0 0 0-4.048H4.024a2.024 2.024 0 1 0 0 4.048zm0-3.036h2.024v2.024H4.024z" data-name="Pfad 13839" transform="translate(-1.12 -2.24)"></path>
</svg>
