<?xml version="1.0" encoding="UTF-8" standalone="no"?>
<svg
   xmlns:dc="http://purl.org/dc/elements/1.1/"
   xmlns:cc="http://creativecommons.org/ns#"
   xmlns:rdf="http://www.w3.org/1999/02/22-rdf-syntax-ns#"
   xmlns:svg="http://www.w3.org/2000/svg"
   xmlns="http://www.w3.org/2000/svg"
   xmlns:sodipodi="http://sodipodi.sourceforge.net/DTD/sodipodi-0.dtd"
   xmlns:inkscape="http://www.inkscape.org/namespaces/inkscape"
   inkscape:version="1.0beta1 (32d4812, 2019-09-19)"
   sodipodi:docname="otobo_signet_w.svg"
   xml:space="preserve"
   style="enable-background:new 0 0 141.7 141.7;"
   viewBox="0 0 141.7 141.7"
   y="0px"
   x="0px"
   id="Ebene_1"
   version="1.1"><metadata
   id="metadata852">
  <rdf:RDF>
    <cc:Work
       rdf:about="">
      <dc:format>image/svg+xml</dc:format>
      <dc:type
         rdf:resource="http://purl.org/dc/dcmitype/StillImage" />
    </cc:Work>
  </rdf:RDF>
</metadata>
<defs
   id="defs850" />
<sodipodi:namedview
   inkscape:current-layer="Ebene_1"
   inkscape:window-maximized="0"
   inkscape:window-y="23"
   inkscape:window-x="0"
   inkscape:cy="58.572209"
   inkscape:cx="56.26959"
   inkscape:zoom="3.3925164"
   showgrid="false"
   id="namedview848"
   inkscape:window-height="907"
   inkscape:window-width="1600"
   inkscape:pageshadow="2"
   inkscape:pageopacity="0"
   guidetolerance="10"
   gridtolerance="10"
   objecttolerance="10"
   borderopacity="1"
   inkscape:document-rotation="0"
   bordercolor="#666666"
   pagecolor="#ffffff" />

<style
   id="style833"
   type="text/css">
	.st0{fill:#FFFFFF;}
</style>

<g
   transform="matrix(2.5712186,0,0,2.5712186,-116.909,-111.43609)"
   id="g845">
	<g
   id="g839">
		<path
   inkscape:connector-curvature="0"
   id="path835"
   d="m 97.8,55.4 0.3,-0.3 1.5,-1.5 c 0.5,-0.5 0.7,-1.1 0.7,-1.7 0,-0.7 -0.2,-1.3 -0.7,-1.9 -0.5,-0.5 -1.1,-0.7 -1.8,-0.7 -0.7,0 -1.3,0.3 -1.8,0.7 l -1.5,1.5 -0.3,0.5 -1.5,1.5 c 0,0 0,0 0,0 L 70.3,75.8 c -0.5,0.5 -0.7,1.1 -0.7,1.7 0,0.7 0.2,1.3 0.7,1.9 0.5,0.5 1.1,0.7 1.8,0.7 0.7,0 1.3,-0.3 1.8,-0.7 z"
   class="st0" />

		<path
   inkscape:connector-curvature="0"
   id="path837"
   d="m 65.2,67.2 -0.3,-0.3 -1.5,-1.5 c -0.5,-0.5 -1.1,-0.7 -1.7,-0.7 -0.7,0 -1.3,0.2 -1.9,0.7 -0.5,0.5 -0.7,1.1 -0.7,1.8 0,0.7 0.3,1.3 0.7,1.8 l 1.5,1.5 0.4,0.4 1.5,1.5 c 0,0 0,0 0,0 v 0 c 0.5,0.5 1.1,0.7 1.7,0.7 0.7,0 1.3,-0.2 1.9,-0.7 0.5,-0.5 0.7,-1.1 0.7,-1.8 0,-0.7 -0.3,-1.3 -0.7,-1.8 z"
   class="st0" />

	</g>

	<g
   id="g843">
		<path
   inkscape:connector-curvature="0"
   id="path841"
   d="M 70.9,96 C 57,96 45.8,84.7 45.8,70.9 c 0,-13.8 11.3,-25.1 25.1,-25.1 3.7,0 7.2,0.8 10.5,2.3 1.2,0.5 1.7,1.9 1.1,3 -0.5,1.2 -1.9,1.7 -3,1.1 -2.7,-1.2 -5.6,-1.9 -8.6,-1.9 -11.3,0 -20.5,9.2 -20.5,20.5 0,11.3 9.2,20.5 20.5,20.5 10.7,0 19.5,-8 20.5,-18.6 0.1,-1.3 1.2,-2.2 2.5,-2.1 1.3,0.1 2.2,1.2 2.1,2.5 C 94.7,86.2 84,96 70.9,96 Z"
   class="st0" />

	</g>

</g>

</svg>
