<?xml version="1.0" encoding="UTF-8" standalone="no"?>
<svg
   xmlns:dc="http://purl.org/dc/elements/1.1/"
   xmlns:cc="http://creativecommons.org/ns#"
   xmlns:rdf="http://www.w3.org/1999/02/22-rdf-syntax-ns#"
   xmlns:svg="http://www.w3.org/2000/svg"
   xmlns="http://www.w3.org/2000/svg"
   xmlns:sodipodi="http://sodipodi.sourceforge.net/DTD/sodipodi-0.dtd"
   xmlns:inkscape="http://www.inkscape.org/namespaces/inkscape"
   height="29.4"
   width="186.2"
   inkscape:version="1.0beta1 (32d4812, 2019-09-19)"
   sodipodi:docname="sanmiguel_g.svg"
   xml:space="preserve"
   viewBox="0 0 186.19999 29.399999"
   y="0px"
   x="0px"
   id="Ebene_1"
   version="1.1"><metadata
   id="metadata858">
  <rdf:RDF>
    <cc:Work
       rdf:about="">
      <dc:format>image/svg+xml</dc:format>
      <dc:type
         rdf:resource="http://purl.org/dc/dcmitype/StillImage" />
      <dc:title></dc:title>
    </cc:Work>
  </rdf:RDF>
</metadata>
<defs
   id="defs856" />
<sodipodi:namedview
   inkscape:guide-bbox="true"
   showguides="true"
   inkscape:current-layer="Ebene_1"
   inkscape:window-maximized="0"
   inkscape:window-y="23"
   inkscape:window-x="0"
   inkscape:cy="132.35364"
   inkscape:cx="172.17554"
   inkscape:zoom="1.3034793"
   showgrid="false"
   id="namedview854"
   inkscape:window-height="907"
   inkscape:window-width="1600"
   inkscape:pageshadow="2"
   inkscape:pageopacity="0"
   guidetolerance="10"
   gridtolerance="10"
   objecttolerance="10"
   borderopacity="1"
   inkscape:document-rotation="0"
   bordercolor="#666666"
   pagecolor="#ffffff" />

<g
   transform="translate(-13.3,-9.1)"
   style="fill:#7f809d;fill-opacity:1"
   id="g851">
	<path
   inkscape:connector-curvature="0"
   style="fill:#7f809d;fill-opacity:1"
   id="path833"
   d="m 23.8,19 c -0.7,-2 -1.6,-2.9 -3,-2.9 -1.5,0 -2.3,0.9 -2.3,2.4 0,3.3 9.3,3.5 9.3,10.3 0,3.7 -2.6,6.2 -6.9,6.2 -3.4,0 -6,-1.8 -7.1,-6.1 L 17.9,28 c 0.5,2.6 2,3.5 3.2,3.5 1.4,0 2.6,-1 2.6,-2.6 0,-4.1 -9.3,-4.1 -9.3,-10.2 0,-3.7 2.2,-6.1 6.5,-6.1 3.7,0 6,2.2 6.7,5.3 z" />

	<polygon
   style="fill:#7f809d;fill-opacity:1"
   id="polygon835"
   points="57.3,34.7 57.3,13 61.8,13 67.6,25.8 67.7,25.8 67.7,13 71.4,13 71.4,34.7 67.5,34.7 61.1,20.7 61.1,34.7 " />

	<polygon
   style="fill:#7f809d;fill-opacity:1"
   id="polygon837"
   points="89.2,34.7 84.8,17.6 84.8,17.6 84.8,34.7 81.2,34.7 81.2,13 87,13 90.8,27.2 94.6,13 100.4,13 100.4,34.7 96.8,34.7 96.8,17.6 92.4,34.7 " />

	<rect
   style="fill:#7f809d;fill-opacity:1"
   id="rect839"
   height="21.700001"
   width="4.0999999"
   y="13"
   x="110.1" />

	<path
   inkscape:connector-curvature="0"
   style="fill:#7f809d;fill-opacity:1"
   id="path841"
   d="m 133.8,32.9 c -1.1,1.3 -2.3,2.1 -3.9,2.1 -4,0 -6.9,-1.9 -6.9,-7.3 v -7.8 c 0,-5.4 2.8,-7.3 6.9,-7.3 4.2,0 6.5,2.4 6.7,7.4 h -4.1 c 0,-2.8 -1,-3.7 -2.5,-3.7 -1.7,0 -2.7,0.7 -2.7,3.1 v 8.8 c 0,2.4 1.1,3.1 2.7,3.1 1.6,0 2.5,-1.1 2.5,-3 V 27 h -2.9 v -3.4 h 7.1 v 11.1 h -2.8 z" />

	<path
   inkscape:connector-curvature="0"
   style="fill:#7f809d;fill-opacity:1"
   id="path843"
   d="m 148.2,13 v 15.2 c 0,2.1 0.9,3.2 2.9,3.2 2,0 2.9,-1.1 2.9,-3.2 V 13 h 4.1 v 15.2 c 0,4.8 -2.8,6.8 -7.1,6.8 -4.3,0 -7.1,-2 -7.1,-6.8 V 13 Z" />

	<polygon
   style="fill:#7f809d;fill-opacity:1"
   id="polygon845"
   points="167.3,34.7 167.3,13 178.7,13 178.7,16.6 171.5,16.6 171.5,21.6 177,21.6 177,25.3 171.5,25.3 171.5,31 179,31 179,34.7 " />

	<polygon
   style="fill:#7f809d;fill-opacity:1"
   id="polygon847"
   points="188.2,34.7 188.2,13 192.3,13 192.3,31 199,31 199,34.7 " />

	<path
   inkscape:connector-curvature="0"
   style="fill:#7f809d;fill-opacity:1"
   id="path849"
   d="m 39.7,26.8 2.1,1.6 2.2,-1.6 -2.1,-9.2 H 41.8 Z M 33.8,34.7 39.2,13 h 5.3 l 5.2,21.7 h -4 l -1.1,-4.6 -3,1.9 -2.6,-1.9 -1.2,4.6 z" />

</g>

</svg>
